<?xml version="1.0" encoding="UTF-8"?>
<svg id="Layer_1" xmlns="http://www.w3.org/2000/svg" version="1.1" viewBox="0 0 1466.5 265.6">
  <!-- Generator: Adobe Illustrator 29.8.2, SVG Export Plug-In . SVG Version: 2.1.1 Build 3)  -->
  <defs>
    <style>
      .st0 {
        fill: #101075;
      }
    </style>
  </defs>
  <path class="st0" d="M234.8,2.9H24C10.8,2.9,0,13.7,0,26.9v210.8c0,13.2,10.8,24,24,24h210.8c13.2,0,24-10.8,24-24V26.9c0-13.2-10.8-24-24-24h0ZM174.2,144.4c14.9,5,36.9,9.3,76.8,11.1v9.5c-41.8-3.4-62.8-11.5-76.8-20.6ZM251,168.6v9.6c-38.5-4.7-58.8-15-72-26.8,14.3,7.7,35.4,14.2,72,17.2ZM170.4,138.3c15.5,1.6,38.4,3.3,80.6,3.9v9.6c-27.6-1.1-55.5-4.3-80.6-13.5ZM164.7,133.2c16.2-2.3,39.8-4,86.3-4.5v9c-47.9-.7-70.8-2.7-86.3-4.5ZM161.3,128.8c16.9-6.7,41-12.2,89.7-13.7v8.7c-49.4.6-73.2,2.4-89.7,5ZM159.8,123.7c17.5-10.9,42.5-20,91.2-22.4v8.5c-49.1,1.6-73.8,7.1-91.2,13.9ZM159.3,117.3c18.2-14.9,43.7-27,91.7-29.9v8.2c-47.9,2.3-73.7,11-91.7,21.7ZM159.9,108.9c5.8-5.6,12.2-10.8,19.6-15.5,18.6-11.6,42.1-18.2,71.5-20.1v7.9c-46.2,2.6-72.4,13.8-91.1,27.7ZM161.8,98.2c4.8-5.2,10.1-10.1,15.9-14.5,19.2-14.5,43.3-22.6,73.3-24.5v7.5c-43.6,2.7-70.1,15.2-89.2,31.5ZM163.6,86.4c3.8-4.4,7.9-8.6,12.2-12.5,19.9-17.7,44.6-27.2,75.2-28.8v7.1c-41.6,2.5-67.9,16-87.4,34.2ZM165.9,72.9c2.6-3.1,5.2-6.1,8-8.9,21-21.4,45.6-31.9,77.1-33v6.7c-39.3,2-65.4,15.9-85.1,35.2ZM24,10.7h210.8c7.7,0,14.1,5.4,15.8,12.5-61.3,2.2-91.4,38.9-115.1,81.4l-.2-.3h0c-11.6-6.8-28.1-11.1-54.4-11.1H7.8V26.9c0-8.9,7.3-16.2,16.2-16.2ZM7.8,228.3h1.4c8.4,0,16.7-.8,24.5-2.3,9.4-1.8,17.8-4.6,25.4-8.2-13.8,9.3-30.4,15.1-51.3,15.7,0,0,0-5.2,0-5.2ZM32.2,218.7c-7.3,1.4-15.1,2.2-23,2.2h-1.4v-5.9h6.7c8.1,0,16.1-.7,23.8-2,11.8-2,22.1-5.4,31.1-9.7-10.4,7.2-22.5,12.5-37.2,15.4ZM37.2,206.1c-7.4,1.3-14.8,1.9-22.6,1.9h-6.8v-6.2h12c7.7,0,15.4-.6,23.3-1.8,14.7-2.3,26.9-6.1,37.2-11.1-11.5,8-25.4,14.1-43.1,17.2h0ZM42,193.5c-7.6,1.2-14.8,1.7-22.3,1.7H7.8v-6.5h17.2c7.4,0,14.8-.5,22.7-1.6,17.6-2.4,31.5-6.5,42.9-11.7-12.3,8.4-27.7,14.9-48.6,18.1ZM46.9,181.1c-7.6,1-14.8,1.5-21.8,1.5H7.8v-7h22.5c7,0,14.2-.4,22.1-1.4,21.2-2.4,36.8-6.6,49.1-11.6-13.1,8.5-29.9,15.1-54.6,18.5ZM51.8,168.6c-7.7.9-14.7,1.3-21.4,1.3H7.8v-7.5h27.8c6.6,0,13.6-.4,21.5-1.1,24.1-2.3,40.7-5.7,53.4-9.7,0,.2-.2.4-.3.7-13.3,7.2-30.8,13.1-58.4,16.3ZM56.6,156c-7.7.7-14.6,1.1-21,1.1H7.8v-7.9h33.1c6.2,0,13.1-.3,20.9-.9,24.5-1.9,41-3.9,53.4-5.8-.4.8-.8,1.5-1.2,2.3-13,4.6-30.4,8.6-57.4,11.2h0ZM61.5,143.4c-7.7.6-14.5.9-20.6.9H7.8v-8.4h38.4c5.9,0,12.4-.2,20.4-.7,24.8-1.4,41.2-1.9,53.2-1.8,0,.2-.2.4-.3.6l-1.5,3c-12.7,2.1-29.7,4.3-56.5,6.4ZM66.3,130.8c-7.9.5-14.3.7-20.1.7H7.8v-8.8h43.7c5.8,0,12.3,0,19.8-.4,25.1-.9,41.3,0,53,2.3-.8,1.5-1.5,2.9-2.2,4.4-12.4-.2-29.3.3-55.8,1.8ZM71.2,118.3c-7.5.3-13.9.4-19.7.4H7.8v-9.1h49c5.5,0,11.8,0,19.3-.2,25.4-.5,41.4,2.1,52.9,6.4-.9,1.7-1.8,3.4-2.7,5.1-12.1-2.4-28.9-3.6-55.1-2.6ZM76.1,105.8c-7.5,0-13.8.2-19.2.2H7.8v-9.6h73.1c25.8,0,41.7,4.1,52.9,10.6-1,1.8-2,3.7-3,5.5-11.8-4.5-28.4-7.2-54.7-6.7ZM234.8,253.9H24c-7.6,0-14.1-5.3-15.8-12.5,48.3-1.5,75.5-29.1,96.6-63.3,13.8-18.6,37.1-58.7,62.6-34.1,13.4,16.1,33.6,31.4,83.6,37.4v56.3c0,8.9-7.3,16.2-16.2,16.2Z"/>
  <g>
    <rect class="st0" x="569.4" y="172.5" width="57.5" height="89.2"/>
    <rect class="st0" x="306.8" y="172.5" width="57.5" height="89.2"/>
    <path class="st0" d="M451.1,2.9h-144.4v119.1h57.5V53.4h77.6c24.1,0,37.9,14.5,37.9,34.1s-13.7,34.5-37.9,34.5h-77.6v50.5h86.8c53.4,0,87.2-39,87.2-85S504.6,2.9,451.1,2.9Z"/>
    <rect class="st0" x="842.6" y="2.9" width="57.5" height="258.8"/>
    <path class="st0" d="M1466.5,261.7l-53.6-96.9c30.8-13.6,49-43.6,49-77.3S1428.2,2.9,1374.8,2.9h-144.4v119.1h57.5V53.4h77.6c24.1,0,37.9,14.5,37.9,34.1s-13.7,34.5-37.9,34.5h-77.6v50.5h63.4l49.4,89.2h65.8Z"/>
    <rect class="st0" x="1230.4" y="172.5" width="57.5" height="89.2"/>
    <path class="st0" d="M800.8,87.5c0-46-33.6-84.6-87.1-84.6h-144.4v119.1h57.5V53.4h77.6c24.1,0,37.9,14.5,37.9,34.1s-13.7,34.5-37.9,34.5h-77.6v50.5h63.5l49.4,89.2h65.8l-53.7-96.9c30.8-13.6,49-43.6,49-77.3Z"/>
    <path class="st0" d="M1067,0C990.9,0,933.6,56.6,933.6,132.6s56.2,133,133.4,133,132.3-56.2,132.3-133S1143.1,0,1067,0ZM1066.7,216.6c-44.7,0-76.1-35.7-76.1-84s31.4-84,76.1-84,75.7,36,75.7,84-31.7,84-75.7,84Z"/>
  </g>
</svg>