<?xml version="1.0" standalone="no"?>
<!DOCTYPE svg PUBLIC "-//W3C//DTD SVG 20010904//EN"
 "http://www.w3.org/TR/2001/REC-SVG-20010904/DTD/svg10.dtd">
<svg version="1.0" xmlns="http://www.w3.org/2000/svg"
 width="1182.000000pt" height="591.000000pt" viewBox="0 0 1182.000000 591.000000"
 preserveAspectRatio="xMidYMid meet">

<g transform="translate(0.000000,591.000000) scale(0.100000,-0.100000)"
fill="#000000" stroke="none">
<path d="M7 5903 c-4 -3 -7 -1333 -7 -2955 l0 -2948 5910 0 5910 0 -2 2953 -3
2952 -5901 3 c-3245 1 -5904 -1 -5907 -5z m8558 -1452 c233 -61 380 -196 420
-388 24 -114 50 -103 -235 -103 l-250 0 0 26 c0 76 -97 144 -204 144 -84 0
-130 -15 -161 -52 -22 -26 -26 -39 -21 -66 11 -72 70 -104 292 -162 243 -63
323 -89 396 -127 85 -44 160 -123 200 -210 75 -160 36 -371 -94 -510 -133
-142 -312 -204 -583 -204 -266 -1 -446 61 -582 200 -85 86 -152 242 -153 354
l0 37 254 0 253 0 5 -45 c12 -98 98 -169 221 -182 196 -20 307 151 154 237
-22 13 -147 53 -279 91 -277 80 -370 122 -460 210 -72 70 -107 143 -115 236
-23 278 188 483 552 537 76 11 312 -3 390 -23z m-5495 -816 l0 -795 -795 0
-795 0 0 795 0 795 795 0 795 0 0 -795z m2613 780 c133 -35 236 -114 290 -224
30 -62 32 -72 32 -176 0 -100 -2 -115 -27 -161 -26 -49 -78 -104 -133 -140
l-27 -18 58 -29 c73 -36 148 -107 180 -169 102 -200 11 -474 -194 -581 -139
-73 -120 -71 -694 -75 l-518 -3 0 795 0 796 488 0 c400 0 498 -3 545 -15z
m1714 -760 c156 -423 286 -780 289 -793 l6 -22 -263 2 -264 3 -38 118 -38 117
-243 0 -244 0 -27 -102 c-16 -57 -32 -111 -37 -120 -8 -16 -31 -18 -263 -18
-197 0 -255 3 -255 13 0 6 129 364 287 795 l288 782 259 -2 260 -3 283 -770z
m2943 565 l0 -210 -365 0 -365 0 0 -140 0 -140 325 0 325 0 0 -200 0 -200
-325 0 -325 0 0 -245 0 -245 -245 0 -245 0 0 795 0 795 610 0 610 0 0 -210z
m-6170 -585 l0 -305 -310 0 -310 0 0 305 0 305 310 0 310 0 0 -305z m-2531
-1757 c36 -153 69 -274 72 -270 4 4 39 130 79 280 l73 272 51 0 51 0 76 -288
76 -287 69 285 70 285 46 3 47 3 -40 -148 c-21 -81 -62 -236 -91 -343 l-53
-195 -47 -3 c-45 -3 -47 -2 -56 30 -5 18 -40 147 -77 286 -38 139 -72 249 -76
245 -4 -5 -35 -109 -69 -233 -33 -124 -68 -249 -76 -278 l-16 -53 -46 3 -46 3
-83 320 c-45 176 -85 330 -88 343 -5 22 -3 23 42 20 l47 -3 65 -277z m5101
160 c0 -114 1 -120 18 -106 58 52 178 66 239 28 62 -38 68 -62 68 -285 l0
-200 -37 -3 -38 -3 0 176 c0 234 -13 265 -112 265 -48 0 -100 -27 -120 -62 -9
-15 -15 -80 -18 -198 l-5 -175 -37 -3 -38 -3 0 345 0 346 40 0 40 0 0 -122z
m1890 71 l0 -50 -37 3 c-38 3 -38 3 -41 51 l-3 47 40 0 41 0 0 -51z m-3480
-64 l0 -75 50 0 50 0 0 -35 0 -35 -50 0 -50 0 0 -159 c0 -88 3 -166 6 -175 4
-11 19 -16 50 -16 l44 0 0 -41 0 -42 -67 6 c-56 5 -72 11 -90 32 -22 25 -23
34 -23 211 l0 184 -40 0 c-39 0 -40 1 -40 35 0 34 1 35 40 35 l40 0 0 75 0 75
40 0 40 0 0 -75z m4220 0 l0 -75 50 0 50 0 0 -35 0 -35 -50 0 -50 0 2 -172 3
-173 45 -5 c42 -5 45 -7 48 -38 4 -40 -10 -47 -84 -37 -93 11 -94 13 -94 234
l0 190 -42 3 c-40 3 -43 5 -46 35 -3 31 -2 32 40 35 l43 3 3 73 3 72 39 0 40
0 0 -75z m-6707 -79 c68 -28 122 -115 133 -212 l7 -54 -191 0 -191 0 5 -32
c16 -83 71 -130 154 -130 57 0 94 19 118 63 14 24 24 29 55 29 43 0 42 1 22
-47 -33 -79 -96 -117 -195 -117 -160 0 -252 111 -238 288 8 95 54 168 133 209
37 20 144 22 188 3z m814 -1 c50 -21 72 -42 94 -90 27 -58 25 -65 -21 -65 -35
0 -41 4 -56 35 -20 43 -59 65 -114 65 -93 0 -141 -55 -148 -170 -8 -133 43
-204 144 -202 23 0 55 7 71 16 28 14 63 68 63 95 0 6 18 11 41 11 41 0 41 0
35 -32 -20 -102 -100 -162 -216 -162 -135 1 -215 79 -227 223 -10 122 46 240
132 277 42 18 157 17 202 -1z m473 -24 c0 -38 -2 -39 -38 -46 -53 -9 -98 -38
-119 -77 -14 -26 -19 -66 -23 -188 l-5 -155 -37 -3 -38 -3 0 250 0 251 40 0
40 0 0 -42 0 -42 28 32 c34 39 77 62 120 62 31 0 32 -2 32 -39z m340 19 c69
-35 120 -127 120 -216 l0 -44 -185 0 c-184 0 -185 0 -185 -22 0 -37 38 -102
70 -122 41 -24 130 -25 166 -1 15 9 31 30 37 46 10 26 16 29 54 29 l43 0 -15
-37 c-60 -148 -278 -175 -383 -47 -57 69 -73 208 -35 295 23 51 74 106 118
125 47 21 149 18 195 -6z m545 6 c66 -28 75 -58 75 -253 l0 -173 25 0 c22 0
25 -4 25 -34 0 -29 -4 -34 -30 -40 -40 -7 -78 8 -91 38 l-11 24 -35 -23 c-70
-48 -184 -53 -249 -10 -53 35 -68 132 -29 191 22 34 82 59 175 74 95 15 107
18 125 36 22 23 18 62 -10 89 -20 21 -34 25 -82 25 -71 0 -104 -16 -122 -58
-13 -28 -19 -32 -54 -32 -38 0 -39 0 -32 33 11 48 43 87 89 108 51 23 181 26
231 5z m816 -14 c58 -37 99 -112 106 -193 l6 -59 -187 0 -186 0 0 -26 c0 -41
29 -92 67 -115 68 -42 177 -21 205 41 11 26 18 30 50 30 42 0 44 -6 24 -53
-51 -122 -246 -153 -352 -55 -56 52 -79 111 -78 208 0 61 5 84 27 127 45 87
104 121 208 122 55 1 72 -3 110 -27z m806 7 c46 -22 93 -87 93 -127 0 -19 -6
-22 -40 -22 -30 0 -40 4 -40 16 0 9 -15 31 -34 50 -30 30 -40 34 -86 34 -95 0
-146 -53 -157 -163 -14 -139 69 -232 184 -207 43 10 74 39 89 83 10 29 15 32
50 32 36 0 39 -2 35 -25 -16 -114 -137 -187 -263 -160 -75 16 -121 49 -152
111 -52 104 -29 278 45 346 61 56 194 72 276 32z m1036 7 c69 -28 118 -110
133 -220 l7 -46 -192 0 -193 0 7 -32 c18 -85 73 -130 156 -130 57 0 95 21 117
65 11 23 20 27 53 27 21 0 39 -2 39 -5 0 -15 -33 -81 -48 -98 -56 -63 -195
-82 -280 -38 -83 42 -129 144 -120 265 8 95 54 168 133 209 38 20 144 22 188
3z m579 -25 l30 -33 26 25 c42 39 66 47 135 47 50 0 71 -5 98 -23 56 -37 59
-51 59 -279 l0 -208 -40 0 -40 0 0 185 c0 237 -7 255 -102 255 -22 0 -52 -7
-67 -16 -52 -31 -56 -45 -59 -242 l-4 -183 -36 3 -37 3 -5 198 c-5 194 -6 199
-29 218 -29 24 -93 25 -132 2 -57 -34 -69 -80 -69 -262 l0 -162 -37 3 -38 3
-3 248 -2 247 40 0 c38 0 40 -1 40 -32 l0 -32 28 27 c40 38 69 47 146 44 63
-3 71 -5 98 -36z m994 13 c35 -26 60 -62 68 -96 6 -27 5 -28 -38 -28 -38 0
-45 3 -50 25 -14 53 -137 76 -190 34 -57 -45 -19 -88 104 -119 116 -28 135
-37 170 -77 57 -64 31 -158 -55 -202 -37 -20 -62 -25 -123 -25 -123 -1 -195
44 -209 130 l-6 34 42 0 c34 0 41 -3 41 -19 0 -27 56 -71 93 -72 112 -6 157
15 157 73 0 40 -39 64 -142 87 -94 22 -151 49 -168 81 -6 10 -10 39 -10 64 0
51 33 99 85 122 48 22 196 15 231 -12z m774 -18 l0 -43 -42 -6 c-49 -7 -86
-32 -113 -78 -17 -29 -20 -56 -24 -186 l-3 -153 -39 0 -39 0 0 250 0 250 40 0
40 0 0 -47 0 -48 27 34 c28 35 92 70 131 71 19 0 22 -5 22 -44z m-1210 -217
l0 -250 -37 3 -38 3 -3 248 -2 247 40 0 40 0 0 -251z m1395 89 c32 -90 65
-181 74 -203 l17 -39 69 202 69 202 43 0 42 0 -13 -37 c-8 -21 -62 -162 -120
-313 -90 -234 -111 -280 -141 -308 -32 -30 -41 -33 -88 -30 -51 3 -52 4 -55
36 -3 32 -3 32 43 32 40 0 47 3 65 33 50 81 51 75 -54 337 -53 132 -96 242
-96 245 0 3 20 5 44 5 l44 0 57 -162z"/>
<path d="M1970 3635 l0 -305 303 2 302 3 3 303 2 302 -305 0 -305 0 0 -305z"/>
<path d="M5140 3935 l0 -125 158 0 c129 0 163 3 192 18 46 22 73 74 65 125
-14 94 -45 107 -254 107 l-161 0 0 -125z"/>
<path d="M5140 3339 l0 -141 189 4 c173 3 192 5 217 24 92 68 97 182 11 234
-29 18 -51 20 -224 20 l-193 0 0 -141z"/>
<path d="M6821 3904 c-5 -22 -33 -131 -61 -243 -29 -112 -54 -210 -57 -218 -4
-10 22 -13 137 -13 l142 0 -7 28 c-13 52 -137 477 -140 481 -2 1 -8 -14 -14
-35z"/>
<path d="M2493 1890 c-33 -20 -50 -44 -63 -91 l-9 -29 145 0 c161 0 160 0 125
68 -11 20 -33 45 -49 55 -40 23 -109 22 -149 -3z"/>
<path d="M4125 1900 c-38 -15 -85 -83 -85 -121 0 -5 62 -9 145 -9 l145 0 -6
28 c-20 86 -117 136 -199 102z"/>
<path d="M4819 1726 c-3 -4 -46 -13 -95 -21 -104 -17 -138 -37 -142 -86 -4
-44 15 -68 61 -78 69 -16 148 16 175 72 13 26 13 125 1 113z"/>
<path d="M5457 1892 c-26 -16 -67 -84 -67 -110 0 -9 40 -12 145 -12 l145 0 -6
28 c-10 39 -41 80 -74 97 -39 20 -108 19 -143 -3z"/>
<path d="M7323 1890 c-33 -20 -50 -44 -63 -91 l-9 -29 145 0 c126 0 144 2 144
16 0 28 -41 90 -70 107 -38 23 -107 22 -147 -3z"/>
</g>
</svg>
